# Blender v2.77 (sub 0) OBJ File: 'floor.blend'
# www.blender.org
mtllib floor.mtl
o 立方体
v -9.989021 -0.361489 21.629772
v -9.989021 0.006607 21.629772
v -9.989021 -0.361489 -21.629772
v -9.989021 0.006607 -21.629772
v 9.989021 -0.361489 21.629772
v 9.989021 0.006607 21.629772
v 9.989021 -0.361489 -21.629772
v 9.989021 0.006607 -21.629772
vt 20.1632 9.6428
vt 0.0000 -10.5204
vt 0.0000 9.6428
vt 20.1632 9.6428
vt 0.0000 -10.5204
vt 0.0000 9.6428
vt -20.1632 9.6428
vt 0.0000 -10.5204
vt 0.0000 9.6428
vt -20.1632 9.6428
vt 0.0000 -10.5204
vt 0.0000 9.6428
vt 0.0000 11.4317
vt 20.1632 -8.7315
vt 0.0000 -8.7315
vt 0.0000 11.4317
vt -20.1632 -8.7315
vt 0.0000 -8.7315
vt 20.1632 -10.5204
vt 20.1632 -10.5204
vt -20.1632 -10.5204
vt -20.1632 -10.5204
vt 20.1632 11.4317
vt -20.1632 11.4317
vn -1.0000 0.0000 0.0000
vn 0.0000 0.0000 -1.0000
vn 1.0000 0.0000 0.0000
vn 0.0000 0.0000 1.0000
vn 0.0000 -1.0000 0.0000
vn 0.0000 1.0000 0.0000
usemtl None
s off
f 4/1/1 1/2/1 2/3/1
f 8/4/2 3/5/2 4/6/2
f 6/7/3 7/8/3 8/9/3
f 2/10/4 5/11/4 6/12/4
f 3/13/5 5/14/5 1/15/5
f 8/16/6 2/17/6 6/18/6
f 4/1/1 3/19/1 1/2/1
f 8/4/2 7/20/2 3/5/2
f 6/7/3 5/21/3 7/8/3
f 2/10/4 1/22/4 5/11/4
f 3/13/5 7/23/5 5/14/5
f 8/16/6 4/24/6 2/17/6
